<?xml version="1.0" encoding="UTF-8" standalone="no"?>
<!-- Created with Inkscape (http://www.inkscape.org/) -->

<svg
   xmlns:dc="http://purl.org/dc/elements/1.1/"
   xmlns:cc="http://creativecommons.org/ns#"
   xmlns:rdf="http://www.w3.org/1999/02/22-rdf-syntax-ns#"
   xmlns:svg="http://www.w3.org/2000/svg"
   xmlns="http://www.w3.org/2000/svg"
   xmlns:sodipodi="http://sodipodi.sourceforge.net/DTD/sodipodi-0.dtd"
   xmlns:inkscape="http://www.inkscape.org/namespaces/inkscape"
   width="210mm"
   height="297mm"
   id="svg4099"
   version="1.1"
   inkscape:version="0.48.1 r9760"
   sodipodi:docname="distances.svg"
   inkscape:export-filename="/home/thomas/Programmation/NetBeans/mcib3d-plugins/doc/distances.png"
   inkscape:export-xdpi="300"
   inkscape:export-ydpi="300">
  <defs
     id="defs3" />
  <sodipodi:namedview
     inkscape:document-units="mm"
     id="base"
     pagecolor="#ffffff"
     bordercolor="#666666"
     borderopacity="1.0"
     inkscape:pageopacity="0.0"
     inkscape:pageshadow="2"
     inkscape:zoom="0.7"
     inkscape:cx="264.51444"
     inkscape:cy="380.8341"
     inkscape:current-layer="layer1"
     showgrid="false"
     inkscape:window-width="1920"
     inkscape:window-height="1130"
     inkscape:window-x="0"
     inkscape:window-y="40"
     inkscape:window-maximized="1" />
  <metadata
     id="metadata4">
    <rdf:RDF>
      <cc:Work
         rdf:about="">
        <dc:format>image/svg+xml</dc:format>
        <dc:type
           rdf:resource="http://purl.org/dc/dcmitype/StillImage" />
        <dc:title />
      </cc:Work>
    </rdf:RDF>
  </metadata>
  <g
     inkscape:label="Layer 1"
     inkscape:groupmode="layer"
     id="layer1">
    <path
       style="fill:none;stroke:#000000;stroke-width:3.54330709;stroke-linecap:butt;stroke-linejoin:miter;stroke-opacity:1;stroke-miterlimit:4;stroke-dasharray:none"
       d="m 101.01525,96.757875 c -6.734346,6.734355 -13.468696,13.468705 -20.203046,20.203055 -1.34687,1.34687 -2.897753,2.5168 -4.040611,4.04061 -0.903507,1.20467 -1.185011,2.78767 -2.020305,4.04061 -0.528286,0.79243 -1.34687,1.34687 -2.020305,2.0203 -1.34687,1.34687 -2.69374,2.69374 -4.04061,4.04061 -0.673435,0.67344 -1.594387,1.16847 -2.020305,2.02031 -0.301169,0.60234 0.212959,1.38143 0,2.0203 -0.952381,2.85714 -3.310167,5.15945 -4.04061,8.08122 -0.326664,1.30666 0.602338,2.83594 0,4.04061 -0.851836,1.70367 -2.984039,2.45575 -4.04061,4.04061 -0.28939,0.43409 0,6.77876 0,8.08122 0,9.42809 0,18.85618 0,28.28427 0,1.29123 0.29139,11.53905 0,12.12183 -0.30117,0.60234 -1.417967,-0.30116 -2.020305,0 -0.851836,0.42592 -1.346871,1.34687 -2.020306,2.02031 -2.020305,2.0203 -4.04061,4.04061 -6.060915,6.06092 -1.34687,1.34687 -2.516801,2.89775 -4.04061,4.04061 -1.204677,0.9035 -2.78767,1.18501 -4.04061,2.0203 -1.743322,1.16221 -4.482883,4.48288 -6.060915,6.06092 -1.063619,1.06361 -5.52141,4.9819 -6.060916,6.06091 -0.301169,0.60234 0,1.34687 0,2.02031 0,0.67343 0,1.34687 0,2.0203 0,0.67344 -0.301169,1.41797 0,2.02031 0.425918,0.85183 1.34687,1.34687 2.020305,2.0203 0.673435,0.67344 1.34687,1.34687 2.020305,2.02031 1.188231,1.18823 7.145661,7.61344 8.081221,8.08122 0.602338,0.30117 1.381428,-0.21296 2.020305,0 1.428571,0.47619 2.612039,1.54411 4.04061,2.0203 1.818275,0.60609 4.242641,-0.60609 6.060915,0 0.903508,0.30117 1.16847,1.59439 2.020305,2.02031 0.602339,0.30117 1.417967,-0.30117 2.020306,0 0.851835,0.42591 1.168469,1.59438 2.020305,2.0203 0.602338,0.30117 1.417966,-0.30117 2.020305,0 0.851835,0.42592 1.168469,1.59439 2.020305,2.02031 1.204677,0.60234 2.835933,-0.60234 4.04061,0 0.851835,0.42591 1.34687,1.34687 2.020305,2.0203 1.34687,1.34687 2.69374,2.69374 4.04061,4.04061 2.600634,2.60064 4.82887,4.38509 6.060915,8.08122 0.212959,0.63888 -0.301169,1.41797 0,2.02031 0.425918,0.85183 1.594388,1.16847 2.020306,2.0203 0.602338,1.20468 -0.602339,2.83594 0,4.04061 0.425917,0.85184 1.492019,1.22788 2.020305,2.02031 1.670586,2.50588 2.370023,5.57534 4.04061,8.08122 0.528286,0.79243 1.594387,1.16847 2.020305,2.0203 0.602339,1.20468 -0.602339,2.83594 0,4.04061 0.425918,0.85184 1.719136,1.1168 2.020305,2.02031 0.425918,1.27775 0,2.69374 0,4.04061 0,0.67343 -0.373555,1.45997 0,2.0203 0.08359,0.12538 9.396311,9.86646 10.101521,10.10153 1.27776,0.42592 2.69374,0 4.04061,0 2.10097,0 10.53263,-0.3973 12.12184,0 1.46088,0.36522 2.57972,1.65508 4.04061,2.0203 1.30665,0.32667 2.69374,0 4.04061,0 4.04061,0 8.08122,0 12.12183,0 0.48008,0 7.62841,0.22641 8.08122,0 4.02126,-2.01063 1.0539,-5.182 2.0203,-8.08122 0.47619,-1.42857 1.65509,-2.57972 2.02031,-4.04061 0.45787,-1.8315 0,-7.75459 0,-10.10152 0,-7.40779 0,-14.81557 0,-22.22336 0,-0.95257 -0.0916,-10.00996 0,-10.10152 0.47619,-0.47619 1.41796,0.30117 2.0203,0 0.85184,-0.42592 1.1168,-1.71914 2.02031,-2.02031 1.27775,-0.42592 2.69374,0 4.04061,0 0.67343,0 1.41796,0.30117 2.0203,0 0.85184,-0.42592 1.16847,-1.59439 2.02031,-2.0203 1.29102,-0.64551 6.45508,0.54204 8.08122,0 1.34687,-0.67344 2.69374,-1.34687 4.04061,-2.02031 0,-0.67343 -0.47619,-1.54411 0,-2.0203 1.06479,-1.0648 2.78767,-1.18501 4.04061,-2.02031 0.79243,-0.52828 1.16847,-1.59439 2.0203,-2.0203 0.60234,-0.30117 1.41797,0.30117 2.02031,0 4.61056,-2.30528 5.56566,-4.54897 10.10152,-6.06092 0.63888,-0.21296 1.34687,0 2.02031,0 0.67343,-0.67343 1.16847,-1.59439 2.0203,-2.0203 0.60234,-0.30117 1.41797,0.30117 2.02031,0 0.53641,-0.26821 5.79271,-5.52451 6.06091,-6.06092 0.30117,-0.60234 -0.30117,-1.41797 0,-2.0203 0.42592,-0.85184 1.49202,-1.22788 2.02031,-2.02031 0.83529,-1.25294 1.18501,-2.78767 2.0203,-4.04061 0.52829,-0.79243 1.71914,-1.1168 2.02031,-2.0203 0.42592,-1.27776 -0.32666,-2.73396 0,-4.04061 0.36522,-1.46089 1.65508,-2.57973 2.0203,-4.04061 0.32667,-1.30666 -0.32666,-2.73396 0,-4.04061 0.36523,-1.46089 1.65509,-2.57973 2.02031,-4.04062 0.65333,-2.61331 -0.65333,-5.4679 0,-8.08122 0.36522,-1.46088 1.46105,-2.64246 2.0203,-4.04061 8.13478,-20.33693 -1.57745,4.28951 2.02031,-10.10152 0.36522,-1.46089 1.54411,-2.61204 2.0203,-4.04061 0.46322,-1.38963 -0.59601,-4.8689 0,-6.06092 0.42592,-0.85183 1.71914,-1.11679 2.02031,-2.0203 0.39401,-1.18204 0,-10.38774 0,-12.12183 0,-0.84987 0.3005,-11.52084 0,-12.12183 -0.42592,-0.85184 -1.59439,-1.16847 -2.02031,-2.02031 -0.30116,-0.60234 0,-1.34687 0,-2.0203 0,-0.67344 0,-1.34687 0,-2.02031 0,-6.06091 0,-12.12183 0,-18.18274 0,-2.02031 0.63888,-4.14429 0,-6.06092 -0.30116,-0.90351 -1.71913,-1.1168 -2.0203,-2.0203 -0.85184,-2.55551 0.85184,-5.52572 0,-8.08122 -0.30117,-0.90351 -1.71914,-1.1168 -2.02031,-2.02031 -0.42591,-1.27775 0.42592,-2.76286 0,-4.04061 -0.30116,-0.903508 -1.49201,-1.227876 -2.0203,-2.020305 -0.83529,-1.25294 -1.34687,-2.69374 -2.02031,-4.04061 -0.67343,-1.34687 -0.76736,-3.205317 -2.0203,-4.04061 -1.12066,-0.747109 -3.08823,0.952381 -4.04061,0 -0.95238,-0.952381 0.60234,-2.835933 0,-4.04061 -0.30117,-0.602339 -1.41797,0.301169 -2.02031,0 -0.85183,-0.425918 -1.22787,-1.49202 -2.0203,-2.020305 -1.25294,-0.835294 -2.78767,-1.185012 -4.04061,-2.020305 -0.79243,-0.528286 -1.22788,-1.49202 -2.02031,-2.020306 -1.25294,-0.835293 -2.83593,-1.116797 -4.04061,-2.020305 -1.52381,-1.142857 -2.45575,-2.984038 -4.04061,-4.04061 -0.56033,-0.373554 -1.38143,0.212959 -2.0203,0 -2.85714,-0.952381 -5.22408,-3.088229 -8.08122,-4.04061 -1.81514,-0.605046 -4.20004,0.465219 -6.06092,0 -2.066,-0.516501 -3.97268,-1.602658 -6.06091,-2.020305 -2.64143,-0.528286 -5.38748,0 -8.08122,0 -4.71405,0 -9.42809,0 -14.14214,0 -4.04061,0 -8.08122,0 -12.12183,0 -0.67343,0 -1.34687,0 -2.0203,0 -0.67344,0 -1.41797,-0.301169 -2.02031,0 -0.38673,0.193364 -7.88786,7.694492 -8.08122,8.08122 -0.30117,0.602339 0.47619,1.544115 0,2.020305 -0.47619,0.476191 -1.41797,-0.301169 -2.0203,0 -2.42437,1.212183 -3.63655,4.848733 -6.06092,6.060916 -0.60234,0.301169 -1.41797,-0.30117 -2.02031,0 -1.70367,0.851835 -2.45575,2.984038 -4.04061,4.04061 -1.25294,0.835293 -3.48135,0.622161 -4.04061,2.020305 -1.00043,2.501075 0,5.38748 0,8.08122 z"
       id="path4105"
       inkscape:connector-curvature="0" />
    <path
       style="fill:none;stroke:#000000;stroke-width:3.54330707;stroke-linecap:butt;stroke-linejoin:miter;stroke-miterlimit:4;stroke-opacity:1;stroke-dasharray:none"
       d="m 331.33003,80.595435 c -1.34687,3.367175 -2.17476,6.991777 -4.04061,10.101525 -0.34647,0.577466 -1.41796,-0.301169 -2.0203,0 -0.85184,0.425918 -1.49202,1.227876 -2.02031,2.020305 -0.83529,1.25294 -1.18501,2.78767 -2.0203,4.04061 -0.52829,0.792429 -1.59439,1.16847 -2.02031,2.020305 -0.60233,1.204678 0.60234,2.83593 0,4.04061 -0.42591,0.85184 -1.59438,1.16847 -2.0203,2.02031 -0.22179,0.44357 -0.05,11.97195 0,12.12183 0.30117,0.9035 1.59439,1.16847 2.0203,2.0203 0.30117,0.60234 -0.30117,1.41797 0,2.02031 1.54713,3.09425 3.60022,1.57991 6.06092,4.04061 0.47619,0.47619 -0.21296,1.38142 0,2.0203 0.47619,1.42857 0.95551,2.97582 2.0203,4.04061 0.47619,0.47619 1.54412,-0.47619 2.02031,0 1.06479,1.0648 1.18501,2.78767 2.0203,4.04061 0.52829,0.79243 1.59439,1.16847 2.02031,2.02031 0.30117,0.60234 0,1.34687 0,2.0203 0,0.67344 0,1.34687 0,2.02031 0,3.36717 0,6.73435 0,10.10152 0,3.49272 0.21115,4.73404 -2.02031,8.08122 -0.52828,0.79243 -1.59438,1.16847 -2.0203,2.02031 -0.30117,0.60234 0.21296,1.38143 0,2.0203 -1.22311,3.66934 -1.72907,3.74938 -4.04061,6.06092 -0.67344,0.67343 -1.59439,1.16847 -2.02031,2.0203 -0.30116,0.60234 0.30117,1.41797 0,2.02031 -0.2682,0.53641 -5.5245,5.79271 -6.06091,6.06091 -0.60234,0.30117 -1.41797,-0.30117 -2.02031,0 -1.70367,0.85184 -2.45575,2.98404 -4.04061,4.04061 -1.25294,0.8353 -2.83593,1.1168 -4.04061,2.02031 -1.52381,1.14286 -2.45575,2.98404 -4.04061,4.04061 -0.56033,0.37355 -1.41796,-0.30117 -2.0203,0 -3.09426,1.54713 -1.57991,3.60022 -4.04061,6.06091 -0.47619,0.4762 -1.41797,-0.30116 -2.02031,0 -1.70367,0.85184 -2.45575,2.98404 -4.04061,4.04061 -1.25294,0.8353 -2.97581,0.95552 -4.04061,2.02031 -0.47619,0.47619 0.30117,1.41797 0,2.0203 -0.85183,1.70368 -3.18877,2.33694 -4.04061,4.04062 -0.30117,0.60233 0,1.34687 0,2.0203 0,0.67344 0,1.34687 0,2.02031 0,3.36717 0,6.73435 0,10.10152 0,0.67344 -0.47619,1.54412 0,2.02031 1.0648,1.06479 2.97582,0.95551 4.04061,2.0203 0.002,0.002 -0.003,6.05176 0,6.06092 0.30117,0.9035 1.59439,1.16847 2.02031,2.0203 0.26561,0.53122 0,7.02476 0,8.08122 0,7.40779 0,14.81557 0,22.22336 0,0.48008 -0.22641,7.62841 0,8.08122 0.85183,1.70367 3.18877,2.33694 4.04061,4.04061 1.39336,2.78672 -2.4467,1.80711 2.0203,4.04061 0.60234,0.30117 1.41797,-0.30117 2.02031,0 0.85183,0.42592 1.16847,1.59439 2.0203,2.0203 0.60234,0.30117 1.34687,0 2.02031,0 1.34687,0.67344 2.78767,1.18502 4.04061,2.02031 0.79243,0.52828 1.1168,1.71913 2.0203,2.0203 0.92406,0.30802 7.18223,-0.44949 8.08122,0 0.85184,0.42592 1.16847,1.59439 2.02031,2.02031 1.20468,0.60234 2.83593,-0.60234 4.04061,0 0.85183,0.42592 1.16847,1.59439 2.0203,2.0203 0.73061,0.36531 8.69633,0 10.10153,0 1.73401,0 15.0871,-0.35844 16.16244,0 0.90351,0.30117 1.1168,1.71914 2.02031,2.02031 2.5555,0.85183 5.52571,-0.85184 8.08122,0 0.9035,0.30117 1.11679,1.71913 2.0203,2.0203 2.50911,0.83638 7.4452,-0.66408 10.10153,0 1.46088,0.36523 2.57972,1.65509 4.04061,2.02031 1.30665,0.32666 2.69374,0 4.04061,0 4.71404,0 9.42809,0 14.14213,0 1.07928,0 9.52331,0.28911 10.10153,0 1.79067,-0.89534 4.2218,-4.83484 6.06091,-6.06092 1.25294,-0.83529 2.78767,-1.18501 4.04061,-2.0203 0.55506,-0.37004 5.91899,-5.63514 6.06092,-6.06092 0.42592,-1.27775 -0.60234,-2.83593 0,-4.04061 0.30117,-0.60234 1.41797,0.30117 2.0203,0 0.85184,-0.42591 1.59439,-1.16847 2.02031,-2.0203 0.30117,-0.60234 -0.30117,-1.41797 0,-2.02031 0.42592,-0.85183 1.49202,-1.22787 2.0203,-2.0203 0.8353,-1.25294 1.18502,-2.78767 2.02031,-4.04061 0.52828,-0.79243 1.59439,-1.16847 2.0203,-2.02031 0.30117,-0.60234 -0.47619,-1.54411 0,-2.0203 1.0648,-1.0648 2.78767,-1.18501 4.04061,-2.02031 1.58486,-1.05657 2.33694,-3.18877 4.04061,-4.04061 0.60234,-0.30117 1.38143,0.21296 2.02031,0 2.85714,-0.95238 5.22408,-3.08823 8.08122,-4.04061 0.63888,-0.21296 1.34687,0 2.0203,0 1.34688,-0.67343 2.61204,-1.54411 4.04062,-2.0203 1.38963,-0.46321 4.86889,0.59601 6.06091,0 0.85184,-0.42592 1.16847,-1.59439 2.02031,-2.02031 1.11177,-0.55589 10.54237,0.52649 12.12183,0 1.80701,-0.60234 2.23359,-3.43827 4.04061,-4.04061 1.27775,-0.42592 2.69374,0 4.04061,0 0.67343,0 1.41796,0.30117 2.0203,0 0.85184,-0.42592 1.34687,-1.34687 2.02031,-2.0203 1.34687,0 2.76285,0.42591 4.04061,0 0.9035,-0.30117 1.22787,-1.49202 2.0203,-2.02031 1.25294,-0.83529 2.69374,-1.34687 4.04061,-2.0203 1.34687,-0.67344 2.61204,-1.54412 4.04061,-2.02031 0.63888,-0.21296 1.41797,0.30117 2.02031,0 1.70367,-0.85183 2.33694,-3.18877 4.04061,-4.04061 0.60234,-0.30117 1.41796,0.30117 2.0203,0 0.72258,-0.36129 7.52111,-7.24105 8.08122,-8.08122 0.8353,-1.25294 1.18501,-2.78767 2.02031,-4.04061 0.52828,-0.79243 1.49202,-1.22788 2.0203,-2.0203 0.8353,-1.25294 1.18501,-2.78767 2.02031,-4.04061 0.52828,-0.79243 1.59439,-1.16847 2.0203,-2.02031 0.30117,-0.60234 0,-1.34687 0,-2.0203 0.67344,-1.34687 1.18502,-2.78767 2.02031,-4.04061 0.52828,-0.79243 1.71913,-1.1168 2.0203,-2.02031 0.42592,-1.27775 -0.32666,-2.73395 0,-4.04061 0.73045,-2.92177 3.08823,-5.22408 4.04061,-8.08122 0.87806,-2.63416 0.98909,-5.50317 2.02031,-8.08122 0.3537,-0.88426 1.59439,-1.16847 2.0203,-2.02031 0.30117,-0.60233 0,-1.34687 0,-2.0203 0.67344,-1.34687 1.18502,-2.78767 2.02031,-4.04061 5.6824,-8.5236 -3.4672,10.97501 6.06091,-8.08122 0.60234,-1.20468 -0.60233,-2.83593 0,-4.04061 0.42592,-0.85184 1.71914,-1.1168 2.02031,-2.02031 0,-9.197 -0.95238,-0.11554 2.0203,-6.06091 0.30117,-0.60234 0,-1.34687 0,-2.02031 0,-1.34687 -0.32666,-2.73395 0,-4.04061 -1.50061,-3.73901 3.45171,-3.70531 4.04061,-6.06091 0.49,-1.95999 -0.33213,-4.0681 0,-6.06092 0.35011,-2.10061 1.67021,-3.9603 2.02031,-6.06091 0.55356,-3.32136 -0.81666,-6.83489 0,-10.10153 0.36522,-1.46088 1.65508,-2.57972 2.0203,-4.04061 0.32667,-1.30665 0,-2.69374 0,-4.04061 0,-4.04061 0,-8.08122 0,-12.12183 0,-0.90986 0.30743,-5.446067 0,-6.060915 -0.42591,-0.851835 -1.34687,-1.34687 -2.0203,-2.020305 -0.67344,-0.673435 -1.22788,-1.492019 -2.02031,-2.020305 -1.25294,-0.835293 -2.78767,-1.185012 -4.04061,-2.020305 -0.79242,-0.528286 -1.16847,-1.594387 -2.0203,-2.020305 -1.90476,-0.952381 -4.15615,-1.067924 -6.06092,-2.020305 -0.85183,-0.425918 -1.16847,-1.594388 -2.0203,-2.020305 -0.60234,-0.30117 -1.38143,0.212959 -2.02031,0 -1.42857,-0.476191 -2.69374,-1.34687 -4.04061,-2.020305 -4.54226,-2.271132 -9.09127,-5.050743 -14.14213,-6.060916 -1.98107,-0.396214 -4.14429,0.638877 -6.06092,0 -9.37937,-4.689686 1.16288,-0.171486 -8.08122,-2.020305 -2.08823,-0.417646 -3.95273,-1.719136 -6.06091,-2.020305 -2.66667,-0.380952 -5.38748,0 -8.08122,0 -1.34687,0 -2.73396,0.326664 -4.04061,0 -1.46089,-0.365221 -2.61204,-1.544114 -4.04061,-2.020305 -1.62615,-0.542047 -6.79021,0.645509 -8.08122,0 -0.85184,-0.425918 -1.16847,-1.594387 -2.02031,-2.020305 -0.45281,-0.226406 -7.60113,0 -8.08122,0 -4.04061,0 -8.08122,0 -12.12183,0 -4.71405,0 -9.42809,0 -14.14214,0 -1.34687,0 -2.69374,0 -4.04061,0 -0.67343,0 -1.38142,0.212959 -2.0203,0 -1.42857,-0.476191 -2.57973,-1.655084 -4.04061,-2.020305 -1.53637,-0.384094 -8.40974,0 -10.10153,0 -7.40778,0 -14.81557,0 -22.22335,0 -0.90986,0 -5.44607,0.307424 -6.06092,0 -0.85183,-0.425918 -1.16847,-1.594388 -2.0203,-2.020305 -0.60234,-0.30117 -1.34687,0 -2.02031,0 -0.67343,0 -1.34687,0 -2.0203,0 -3.36718,0 -6.73435,0 -10.10153,0 -1.05646,0 -7.55,-0.265611 -8.08122,0 -1.70367,0.851835 -2.33694,3.188775 -4.04061,4.04061 -0.60234,0.301169 -1.41797,-0.301169 -2.0203,0 -1.70367,0.851835 -2.33694,3.188775 -4.04061,4.04061 -0.60234,0.301169 -1.41797,-0.301169 -2.02031,0 -0.85183,0.425918 -1.16847,1.594388 -2.0203,2.020305 -0.60234,0.30117 -1.41797,-0.301169 -2.02031,0 -0.85183,0.425918 -1.22788,1.492019 -2.0203,2.020305 -1.25294,0.835294 -2.78767,1.185012 -4.04061,2.020305 -0.79243,0.528286 -1.16847,1.594388 -2.02031,2.020306 -0.60234,0.301169 -1.34687,0 -2.0203,0 -2.69375,0 -5.38749,0 -8.08123,0 z"
       id="path4107"
       inkscape:connector-curvature="0" />
    <path
       sodipodi:type="arc"
       style="opacity:0.92857139;fill:#098712;fill-opacity:1;fill-rule:nonzero;stroke:#ffffff;stroke-width:3.54330707;stroke-miterlimit:4;stroke-opacity:1;stroke-dasharray:none;stroke-dashoffset:0.2582"
       id="path4109"
       sodipodi:cx="136.37059"
       sodipodi:cy="186.66145"
       sodipodi:rx="13.131983"
       sodipodi:ry="13.131983"
       d="m 149.50257,186.66145 a 13.131983,13.131983 0 1 1 -26.26396,0 13.131983,13.131983 0 1 1 26.26396,0 z" />
    <path
       sodipodi:type="arc"
       style="opacity:0.92857139;fill:#098712;fill-opacity:1;fill-rule:nonzero;stroke:#ffffff;stroke-width:3.54330707;stroke-miterlimit:4;stroke-opacity:1;stroke-dasharray:none;stroke-dashoffset:0.2582"
       id="path4111"
       sodipodi:cx="428.30469"
       sodipodi:cy="178.58023"
       sodipodi:rx="14.142136"
       sodipodi:ry="15.152288"
       d="m 442.44682,178.58023 a 14.142136,15.152288 0 1 1 -28.28427,0 14.142136,15.152288 0 1 1 28.28427,0 z" />
    <path
       style="fill:none;stroke:#000000;stroke-width:3.54330709;stroke-linecap:butt;stroke-linejoin:miter;stroke-opacity:1;stroke-miterlimit:4;stroke-dasharray:none"
       d="m 307.08637,559.40774 c -6.03097,2.85519 -11.64804,6.44755 -18.18274,8.08122 -0.65333,0.16333 -1.38143,-0.21296 -2.02031,0 -1.42857,0.47619 -2.61204,1.54412 -4.04061,2.02031 -0.63887,0.21296 -1.41796,-0.30117 -2.0203,0 -0.85184,0.42591 -1.22788,1.49202 -2.02031,2.0203 -1.25294,0.83529 -2.78767,1.18501 -4.04061,2.02031 -0.79243,0.52828 -1.22787,1.49202 -2.0203,2.0203 -1.25294,0.83529 -2.78767,1.18501 -4.04061,2.02031 -0.79243,0.52828 -1.16847,1.59438 -2.02031,2.0203 -0.60234,0.30117 -1.41796,-0.30117 -2.0203,0 -1.54329,0.77165 -4.69287,5.6049 -6.06092,6.06092 -1.27775,0.42591 -2.76286,-0.42592 -4.04061,0 -0.90351,0.30117 -1.34687,1.34687 -2.0203,2.0203 -1.34687,1.34687 -2.98404,2.45575 -4.04061,4.04061 -0.8353,1.25294 -1.34687,2.69374 -2.02031,4.04061 -0.67343,1.34687 -1.54411,2.61204 -2.0203,4.04061 -0.21296,0.63888 0.30117,1.41797 0,2.02031 -4.62308,9.24614 0.83736,-8.573 -4.04061,6.06091 -0.63888,1.91663 0.48999,4.10093 0,6.06092 -0.36523,1.46088 -1.54412,2.61204 -2.02031,4.04061 -0.5769,1.73071 0.44559,6.29887 0,8.08122 -0.36522,1.46088 -1.65508,2.57972 -2.0203,4.04061 -0.45788,1.8315 0,7.7546 0,10.10152 0,1.34687 0.42591,2.76286 0,4.04061 -0.30117,0.90351 -1.34687,1.34687 -2.02031,2.02031 -0.67343,1.34687 -1.65508,2.57972 -2.0203,4.04061 -0.49,1.95998 0.48999,4.10093 0,6.06092 -0.51651,2.066 -1.60266,3.97268 -2.02031,6.06091 -0.26414,1.32072 0.42592,2.76286 0,4.04061 -0.67343,0.67344 -1.34687,1.34687 -2.0203,2.02031 -0.67344,0.67343 -1.71914,1.11679 -2.02031,2.0203 -0.42592,1.27775 0,2.69374 0,4.04061 0,0.67344 0.30117,1.41797 0,2.02031 -0.85184,1.70367 -2.98404,2.45575 -4.04061,4.04061 -0.83529,1.25294 -1.34687,2.69374 -2.02031,4.04061 -0.67343,1.34687 -1.34687,2.69374 -2.0203,4.04061 0,0.67343 0.21296,1.38143 0,2.0203 -0.47619,1.42857 -1.54411,2.61204 -2.02031,4.04061 -0.21295,0.63888 0.30117,1.41797 0,2.02031 -0.42591,0.85183 -1.71913,1.11679 -2.0203,2.0203 -0.42592,1.27776 0.26414,2.7199 0,4.04061 0.46362,4.05706 -3.16104,6.58325 -4.04061,10.10153 -0.32666,1.30665 0,2.69374 0,4.04061 -0.67344,2.69374 -1.14225,5.44706 -2.02031,8.08122 -0.47619,1.42857 -1.65508,2.57972 -2.0203,4.04061 -0.32666,1.30665 0.60234,2.83593 0,4.04061 -0.85184,1.70367 -2.98404,2.45575 -4.04061,4.04061 -0.37356,0.56033 0,1.34687 0,2.0203 0,1.34687 0.32666,2.73396 0,4.04061 -0.36522,1.46089 -1.54412,2.61204 -2.02031,4.04061 -0.21295,0.63888 0.21296,1.38143 0,2.02031 -0.47619,1.42857 -1.54411,2.61204 -2.0203,4.04061 -0.21296,0.63888 0,1.34687 0,2.0203 0,1.34687 0,2.69374 0,4.04061 0,1.34687 0.32666,2.73396 0,4.04061 -2.62264,10.49058 -2.02031,-2.15676 -2.02031,8.08123 0,0.67343 -0.21296,1.38142 0,2.0203 0.47619,1.42857 1.54412,2.61204 2.02031,4.04061 0.42592,1.27775 -0.42592,2.76286 0,4.04061 0.95238,2.85714 3.31017,5.15945 4.04061,8.08122 0.32666,1.30666 -0.22143,2.71207 0,4.04061 0.45648,2.73887 1.47576,5.3585 2.0203,8.08122 0.13208,0.66036 -0.16333,1.36698 0,2.02031 0.51651,2.066 1.60266,3.97268 2.02031,6.06091 0.52829,2.64143 -0.65333,5.46791 0,8.08122 0.36522,1.46089 1.54411,2.61204 2.0203,4.04061 0.37504,1.12511 -0.51941,5.28179 0,6.06092 13.40102,13.40101 -1.90476,-3.80953 4.04061,8.08122 1.21219,2.42436 4.84874,3.63655 6.06092,6.06091 7.31429,14.62857 -3.27368,-2.50674 4.04061,12.12183 0.42592,0.85184 1.49202,1.22788 2.0203,2.02031 1.67059,2.50588 2.69375,5.38748 4.04062,8.08122 0.67343,1.34687 1.34687,2.69374 2.0203,4.04061 0.67344,1.34687 0.95551,2.97582 2.02031,4.04061 0.47619,0.47619 1.54411,-0.47619 2.0203,0 1.06479,1.06479 1.18501,2.78767 2.02031,4.04061 2.05978,3.08968 2.78963,1.58715 6.06091,4.04061 1.52381,1.14286 2.27208,3.3332 4.04061,4.04061 1.87581,0.75032 4.2539,-0.90351 6.06092,0 1.34687,0.67344 0.95551,2.97582 2.0203,4.04061 0.47619,0.47619 1.41797,-0.30117 2.02031,0 2.17176,1.08588 3.80647,3.13884 6.06091,4.04061 10.10153,4.04061 0,-2.0203 6.06092,0 1.42857,0.47619 2.61204,1.54412 4.04061,2.02031 0.63887,0.21295 1.34687,0 2.0203,0 2.02031,0 4.04061,0 6.06092,0 1.34687,0 2.71989,-0.26415 4.04061,0 4.05706,-0.46362 6.58324,3.16104 10.10152,4.04061 1.30666,0.32666 2.76286,-0.42592 4.04061,0 0.90351,0.30117 1.1168,1.71913 2.02031,2.0203 1.27775,0.42592 2.73395,-0.32666 4.04061,0 1.46088,0.36522 2.64247,1.46105 4.04061,2.02031 1.97727,0.79091 4.08364,1.22939 6.06091,2.0203 1.39815,0.55926 2.56401,1.72499 4.04061,2.02031 1.98108,0.39621 4.04061,0 6.06092,0 4.04061,0 8.08122,0 12.12183,0 1.34687,0 2.7199,-0.26415 4.04061,0 2.08823,0.41764 3.97268,1.60265 6.06092,2.0203 1.98107,0.39622 4.10093,-0.48999 6.06091,0 2.06601,0.5165 3.97268,1.60266 6.06092,2.02031 2.64143,0.52828 5.38748,0 8.08122,0 2.69374,0 5.38748,0 8.08122,0 1.34687,0 2.71206,0.22142 4.04061,0 2.73886,-0.45648 5.33248,-1.62763 8.08122,-2.02031 2,-0.28571 4.0681,0.33214 6.06091,0 2.10062,-0.3501 4.04061,-1.34687 6.06092,-2.0203 2.0203,-0.67344 4.04061,-1.34687 6.06091,-2.02031 2.02031,-0.67343 3.97268,-1.60266 6.06092,-2.0203 1.32071,-0.26415 2.71989,0.26414 4.04061,0 2.08823,-0.41765 3.97268,-1.60266 6.06091,-2.02031 2.64143,-0.52829 5.52572,0.85184 8.08122,0 0.90351,-0.30117 1.16847,-1.59439 2.02031,-2.0203 1.20468,-0.60234 2.83593,0.60233 4.04061,0 0.85183,-0.42592 1.16847,-1.59439 2.0203,-2.02031 0.60234,-0.30117 1.41797,0.30117 2.02031,0 0.85183,-0.42592 1.34687,-1.34687 2.0203,-2.0203 0.67344,-0.67344 1.34687,-1.34687 2.02031,-2.02031 1.34687,-1.34687 2.69374,-2.69374 4.04061,-4.04061 0.67343,-0.67343 1.1168,-1.71914 2.0203,-2.0203 1.27776,-0.42592 2.83594,0.60233 4.04062,0 1.70367,-0.85184 2.5168,-2.89776 4.04061,-4.04061 1.01741,-4.45107 4.15615,-1.06793 6.06091,-2.02031 0.85184,-0.42592 1.22788,-1.49202 2.02031,-2.02031 2.50588,-1.67058 5.49871,-2.4911 8.08122,-4.04061 2.08208,-1.24924 3.95273,-2.83593 6.06091,-4.04061 2.61488,-1.49421 5.38748,-2.69374 8.08122,-4.04061 1.34687,-0.67343 2.64247,-1.46104 4.04061,-2.0203 1.97728,-0.79091 4.08364,-1.2294 6.06092,-2.02031 2.79628,-1.11851 5.38748,-2.69374 8.08122,-4.04061 1.34687,-0.67343 2.57972,-1.65508 4.04061,-2.0203 1.30665,-0.32667 2.83593,0.60234 4.04061,0 1.70367,-0.85184 2.33694,-3.18878 4.04061,-4.04061 1.20468,-0.60234 2.76286,0.42592 4.04061,0 0.90351,-0.30117 1.34687,-1.34687 2.0203,-2.02031 0.0606,-0.0606 7.2652,-7.6732 8.08122,-8.08122 0.60234,-0.30117 1.71914,0.60234 2.02031,0 0.60234,-1.20467 -0.60234,-2.83593 0,-4.04061 0.30117,-0.60234 1.34687,0 2.0203,0 0.67344,-1.34687 1.54412,-2.61204 2.02031,-4.04061 0.21296,-0.63887 0,-1.34687 0,-2.0203 0,-1.25189 -0.31606,-11.48972 0,-12.12183 0.85183,-1.70367 2.69374,-2.69374 4.04061,-4.04061 0,-2.02031 -0.75032,-4.18511 0,-6.06092 0.70741,-1.76853 2.85071,-2.55324 4.04061,-4.04061 10.01715,-12.52144 -0.23374,-0.65955 6.06091,-10.10152 0.52829,-0.79243 1.59439,-1.16847 2.02031,-2.02031 0.95238,-1.90476 1.2294,-4.08364 2.0203,-6.06091 0.55926,-1.39815 1.18502,-2.78767 2.02031,-4.04061 0.52829,-0.79243 1.71914,-1.1168 2.0203,-2.02031 3.08053,-9.24157 -5.29665,2.0934 2.02031,-10.10152 0.97999,-1.63332 2.98404,-2.45576 4.04061,-4.04062 0.55848,-0.83771 -0.56665,-6.94792 0,-8.08122 4.62307,-9.24614 -0.83736,8.573 4.04061,-6.06091 2.0047,-6.01411 -4.78382,4.14527 2.02031,-6.06092 0.52828,-0.79242 1.71913,-1.11679 2.0203,-2.0203 0.42592,-1.27775 -0.42592,-2.76286 0,-4.04061 0.30117,-0.90351 1.34687,-1.34687 2.02031,-2.02031 1.18823,-1.18823 7.61344,-7.14566 8.08122,-8.08122 0.30117,-0.60234 -0.21296,-1.38143 0,-2.0203 1.41421,-4.24264 4.6467,-7.87919 6.06091,-12.12183 0.21296,-0.63888 -0.37355,-1.45998 0,-2.02031 1.34687,-1.34687 2.69374,-2.69374 4.04061,-4.04061 0,-0.67343 -0.30117,-1.41796 0,-2.0203 0.42592,-0.85184 1.34687,-1.34687 2.02031,-2.02031 2.05368,-2.05368 3.2252,-2.79928 4.04061,-6.06091 0.48999,-1.95999 0,-4.04061 0,-6.06092 0,-4.71404 0,-9.42809 0,-14.14213 0,-5.38748 0,-10.77496 0,-16.16244 0,-2.02031 0.33213,-4.0681 0,-6.06092 -0.35011,-2.10061 -1.67021,-3.9603 -2.02031,-6.06092 -0.33213,-1.99281 0.39622,-4.07984 0,-6.06091 -0.59064,-2.95321 -3.08823,-5.22408 -4.04061,-8.08122 -0.63888,-1.91663 0.49,-4.10093 0,-6.06092 -0.36522,-1.46088 -1.18501,-2.78767 -2.0203,-4.04061 -0.52829,-0.79243 -1.78932,-1.09636 -2.02031,-2.0203 -0.48999,-1.95999 0.75032,-4.18511 0,-6.06092 -1.01015,-2.52538 -4.54569,-3.78807 -6.06091,-6.06091 -0.8353,-1.25294 -1.1168,-2.83593 -2.02031,-4.04061 -1.14286,-1.52381 -2.69374,-2.69374 -4.04061,-4.04061 -3.36717,-3.36718 -6.3831,-7.12679 -10.10152,-10.10153 -1.17587,-0.94069 -2.78767,-1.18501 -4.04061,-2.0203 -2.80166,-1.86778 -5.1577,-4.39033 -8.08123,-6.06092 -1.849,-1.05657 -4.15615,-1.06792 -6.06091,-2.0203 -4.34353,-2.17177 -7.77831,-5.90946 -12.12183,-8.08122 -16.72033,-8.36017 6.87793,6.55112 -14.14214,-6.06092 -0.81666,-0.48999 -1.13604,-1.6666 -2.0203,-2.0203 -5.1561,-2.06244 -10.89413,-2.28451 -16.16244,-4.04061 -1.42857,-0.47619 -2.57973,-1.65509 -4.04061,-2.02031 -1.30666,-0.32666 -2.7199,0.26414 -4.04061,0 -2.08824,-0.41765 -3.9603,-1.6702 -6.06092,-2.0203 -3.98563,-0.66428 -8.1362,0.66427 -12.12183,0 -4.20123,-0.70021 -7.9206,-3.34041 -12.12183,-4.04061 -1.99282,-0.33214 -4.04061,0 -6.06091,0 -1.34687,0 -2.76286,0.42591 -4.04061,0 -0.90351,-0.30117 -1.1168,-1.71914 -2.02031,-2.02031 -1.27775,-0.42592 -2.7199,0.26414 -4.04061,0 -2.08823,-0.41765 -3.97268,-1.60266 -6.06092,-2.0203 -1.32071,-0.26415 -2.69374,0 -4.04061,0 -2.69374,0 -5.42413,0.44284 -8.08122,0 -1.48535,-0.24756 -2.57972,-1.65509 -4.04061,-2.02031 -1.30665,-0.32666 -2.69374,0 -4.04061,0 -3.36717,0 -6.73435,0 -10.10152,0 -2.69374,0 -5.38748,0 -8.08122,0 -1.34687,0 -2.69374,0 -4.04061,0 -0.67344,0 -1.38143,0.21296 -2.02031,0 -1.42857,-0.47619 -2.61204,-1.54411 -4.04061,-2.0203 -1.27289,-0.4243 -10.5795,0 -12.12183,0 -7.40778,0 -14.81557,0 -22.22335,0 -5.38748,0 -10.77496,0 -16.16244,0 -1.32756,0 -4.92107,-0.37996 -6.06092,0 -14.63391,4.87797 3.18523,-0.58247 -6.06092,4.04061 -1.18364,0.59182 -8.61276,-0.37219 -10.10152,0 -9.75594,2.43898 0.10013,0.96008 -6.06092,4.04061 -0.60233,0.30116 -1.35603,-0.11072 -2.0203,0 -3.38714,0.56452 -6.73435,1.34687 -10.10153,2.0203 z"
       id="path4113"
       inkscape:connector-curvature="0" />
    <path
       style="fill:none;stroke:#000000;stroke-width:3.54330709;stroke-linecap:butt;stroke-linejoin:miter;stroke-opacity:1;stroke-miterlimit:4;stroke-dasharray:none"
       d="m 442.44681,617.99659 c -21.87046,-0.55857 1.44115,-4.1697 -3.57143,2.85714 -2.77664,2.77664 -3.26282,1.0256 -6.53009,3.20377 -4.00234,-0.20167 -0.95551,2.97582 -2.02031,4.04061 -0.47619,0.47619 -1.54411,-0.47619 -2.0203,0 -0.47619,0.47619 0,1.34687 0,2.02031 0,4.04061 0,8.08122 0,12.12183 0,0.67343 0,1.34687 0,2.0203 0,0.67344 -0.30117,1.41797 0,2.02031 0.88015,1.7603 4.6548,3.68908 6.06091,4.04061 1.30666,0.32666 2.73396,-0.32666 4.04061,0 1.46089,0.36522 2.61204,1.54411 4.04061,2.0203 0.63888,0.21296 1.38143,-0.21295 2.02031,0 1.42857,0.4762 2.61204,1.54412 4.04061,2.02031 0.63888,0.21296 1.41797,-0.30117 2.0203,0 0.85184,0.42592 1.16847,1.59439 2.02031,2.02031 0.60234,0.30116 1.41797,-0.30117 2.02031,0 0.85183,0.42591 1.16846,1.59438 2.0203,2.0203 1.61624,0.80812 4.44467,-0.80812 6.06092,0 1.70367,0.85184 2.33693,3.18877 4.04061,4.04061 0.53122,0.26561 7.02476,0 8.08122,0 1.43199,0 11.59948,0.26118 12.12183,0 1.07901,-0.53951 4.99729,-4.9973 6.06091,-6.06091 1.06362,-1.06362 5.52141,-4.98191 6.06092,-6.06092 0.27335,-0.5467 0,-11.25159 0,-12.12183 0,-0.48009 0.2264,-7.62841 0,-8.08122 -0.42592,-0.85184 -1.59439,-1.16847 -2.02031,-2.02031 -0.59601,-1.19202 0.46321,-4.67128 0,-6.06091 -0.47619,-1.42857 -1.54411,-2.61204 -2.0203,-4.04061 -0.21296,-0.63888 0.30117,-1.41797 0,-2.02031 -0.42592,-0.85183 -1.34687,-1.34687 -2.02031,-2.0203 -0.67343,-0.67344 -1.16847,-1.59439 -2.0203,-2.02031 -0.60234,-0.30117 -1.41797,0.30117 -2.02031,0 -0.85183,-0.42591 -1.16847,-1.59438 -2.0203,-2.0203 -0.60234,-0.30117 -1.41797,0.30117 -2.02031,0 -0.85183,-0.42592 -1.16847,-1.59439 -2.0203,-2.02031 -0.60234,-0.30117 -1.41797,0.30117 -2.02031,0 -4.21755,-2.10877 0.17694,-5.97244 -4.04061,-8.08122 -1.26981,-0.6349 -6.81141,0.63491 -8.08122,0 -0.85183,-0.42592 -1.16847,-1.59438 -2.0203,-2.0203 -0.60234,-0.30117 -1.41797,0.30117 -2.02031,0 -0.85183,-0.42592 -1.1168,-1.71914 -2.0203,-2.02031 -2.55551,-0.85183 -5.46791,0.65333 -8.08122,0 -1.46089,-0.36522 -2.61204,-1.54411 -4.04062,-2.0203 -0.63887,-0.21296 -2.0203,0.67343 -2.0203,0 0,-0.67344 2.4965,-0.47619 2.0203,0 -9.65717,9.65717 -0.0945,-5.77742 -4.04061,6.06091 -0.30116,0.90351 -1.59438,1.16847 -2.0203,2.02031 -0.30117,0.60234 0.30117,1.41796 0,2.0203 -0.42592,0.85184 -1.59439,1.16847 -2.02031,2.02031 -0.60233,1.20468 0.95239,3.08823 0,4.04061 -0.47619,0.47619 -2.0203,-0.67344 -2.0203,0 0,2.77664 1.34687,5.38748 2.0203,8.08122 z"
       id="path4115"
       inkscape:connector-curvature="0"
       sodipodi:nodetypes="cccssssssssscsscsssssssssssssscsssssssssssssssssssssc" />
    <path
       style="fill:#0000ff;stroke:#0000e3;stroke-width:1.77165353999999997;stroke-linecap:butt;stroke-linejoin:miter;stroke-opacity:1;stroke-miterlimit:4;stroke-dasharray:none"
       d="M 135.36044,189.69191 C 426.28437,175.54977 430.32498,179.59038 430.32498,179.59038"
       id="path4117"
       inkscape:connector-curvature="0" />
    <path
       sodipodi:type="arc"
       style="opacity:0.92857139000000000;fill:#008000;fill-opacity:1;fill-rule:nonzero;stroke:#ffffff;stroke-width:3.54330707000000000;stroke-miterlimit:4;stroke-opacity:1;stroke-dasharray:none;stroke-dashoffset:0.25819999999999999"
       id="path4119"
       sodipodi:cx="382.84781"
       sodipodi:cy="749.31641"
       sodipodi:rx="11.111678"
       sodipodi:ry="12.121831"
       d="m 393.95949,749.31641 a 11.111678,12.121831 0 1 1 -22.22336,0 11.111678,12.121831 0 1 1 22.22336,0 z" />
    <path
       sodipodi:type="arc"
       style="opacity:0.92857139000000000;fill:#008000;fill-opacity:1;fill-rule:nonzero;stroke:#ffffff;stroke-width:3.54330707000000000;stroke-miterlimit:4;stroke-opacity:1;stroke-dasharray:none;stroke-dashoffset:0.25819999999999999"
       id="path4121"
       sodipodi:cx="468.71078"
       sodipodi:cy="635.16919"
       sodipodi:rx="10.101525"
       sodipodi:ry="9.0913725"
       d="m 478.81231,635.16919 a 10.101525,9.0913725 0 1 1 -20.20305,0 10.101525,9.0913725 0 1 1 20.20305,0 z" />
    <path
       style="fill:#000000;stroke:#000000;stroke-width:2.06220472;stroke-linecap:butt;stroke-linejoin:miter;stroke-opacity:1;opacity:1;stroke-miterlimit:4;stroke-dasharray:none"
       d="M 385.87827,743.2555 C 470.73109,634.15903 470.73109,634.15903 470.73109,634.15903"
       id="path4125"
       inkscape:connector-curvature="0" />
    <path
       style="fill:#ff0000;stroke:#ff0000;stroke-width:2.06220472;stroke-linecap:butt;stroke-linejoin:miter;stroke-opacity:1;stroke-miterlimit:4;stroke-dasharray:none"
       d="m 213.57143,207.36218 c 67.85714,7.14286 67.85714,7.14286 67.85714,7.14286"
       id="path4127"
       inkscape:connector-curvature="0" />
    <path
       style="fill:none;stroke:#fe0000;stroke-width:2.06220472;stroke-linecap:butt;stroke-linejoin:miter;stroke-opacity:1;stroke-miterlimit:4;stroke-dasharray:none"
       d="m 449.28571,594.50504 c -10,-40 -10,-40 -10,-40"
       id="path4897"
       inkscape:connector-curvature="0" />
    <path
       style="fill:#ff0000;stroke:#fd00f9;stroke-width:2.06220472;stroke-linecap:butt;stroke-linejoin:miter;stroke-opacity:1;stroke-miterlimit:4;stroke-dasharray:none"
       d="M 386.42857,750.21933 C 522.14286,570.93361 522.14286,570.93361 522.14286,570.93361"
       id="path4899"
       inkscape:connector-curvature="0" />
    <text
       xml:space="preserve"
       style="font-size:40px;font-style:normal;font-weight:normal;line-height:125%;letter-spacing:0px;word-spacing:0px;fill:#ff0000;fill-opacity:1;stroke:none;font-family:Bitstream Vera Sans"
       x="219.28572"
       y="246.6479"
       id="text4903"
       sodipodi:linespacing="125%"><tspan
         sodipodi:role="line"
         id="tspan4905"
         x="219.28572"
         y="246.6479">BB</tspan><tspan
         sodipodi:role="line"
         x="219.28572"
         y="296.64789"
         id="tspan4907" /></text>
    <text
       xml:space="preserve"
       style="font-size:40px;font-style:normal;font-weight:normal;line-height:125%;letter-spacing:0px;word-spacing:0px;fill:#ff0000;fill-opacity:1;stroke:none;font-family:Bitstream Vera Sans"
       x="378.45007"
       y="591.22797"
       id="text4903-3"
       sodipodi:linespacing="125%"><tspan
         sodipodi:role="line"
         id="tspan4905-8"
         x="378.45007"
         y="591.22797">BB</tspan><tspan
         sodipodi:role="line"
         x="378.45007"
         y="641.22797"
         id="tspan4907-7" /></text>
    <text
       xml:space="preserve"
       style="font-size:40px;font-style:normal;font-weight:normal;line-height:125%;letter-spacing:0px;word-spacing:0px;fill:#ff00ff;fill-opacity:1;stroke:none;font-family:Bitstream Vera Sans"
       x="486.42856"
       y="700.93359"
       id="text4933"
       sodipodi:linespacing="125%"><tspan
         sodipodi:role="line"
         id="tspan4935"
         x="486.42856"
         y="700.93359">RC</tspan></text>
    <text
       xml:space="preserve"
       style="font-size:40px;font-style:normal;font-weight:normal;line-height:125%;letter-spacing:0px;word-spacing:0px;fill:#0000ff;fill-opacity:1;stroke:none;font-family:Bitstream Vera Sans"
       x="370.71426"
       y="690.21936"
       id="text4937"
       sodipodi:linespacing="125%"><tspan
         sodipodi:role="line"
         id="tspan4939"
         x="370.71426"
         y="690.21936">CC</tspan></text>
    <path
       style="fill:#aa0000;stroke:#ffdc18;stroke-width:2.06220472;stroke-linecap:butt;stroke-linejoin:miter;stroke-opacity:1;stroke-miterlimit:4;stroke-dasharray:none"
       d="M 482.85714,603.79075 C 510,570.21932 509.28571,567.36218 509.28571,567.36218"
       id="path4941"
       inkscape:connector-curvature="0" />
    <text
       xml:space="preserve"
       style="font-size:40px;font-style:normal;font-weight:normal;line-height:125%;letter-spacing:0px;word-spacing:0px;fill:#ffcc00;fill-opacity:1;stroke:none;font-family:Bitstream Vera Sans"
       x="492.14285"
       y="555.2193"
       id="text4943"
       sodipodi:linespacing="125%"><tspan
         sodipodi:role="line"
         id="tspan4945"
         x="492.14285"
         y="555.2193">BC</tspan></text>
    <text
       xml:space="preserve"
       style="font-size:40px;font-style:normal;font-weight:normal;line-height:125%;letter-spacing:0px;word-spacing:0px;fill:#000000;fill-opacity:1;stroke:none;font-family:Bitstream Vera Sans"
       x="105.71429"
       y="423.07648"
       id="text4947"
       sodipodi:linespacing="125%"><tspan
         sodipodi:role="line"
         id="tspan4949"
         x="105.71429"
         y="423.07648">Exc = <tspan
   style="fill:#0000ff"
   id="tspan4957">CC</tspan> / <tspan
   style="fill:#ff00ff"
   id="tspan4953">RC</tspan></tspan><tspan
         sodipodi:role="line"
         x="105.71429"
         y="473.07648"
         id="tspan4951">Per = <tspan
   style="fill:#ffcc00"
   id="tspan4959">BC</tspan> / <tspan
   style="fill:#ff00ff"
   id="tspan4955">RC</tspan></tspan></text>
    <text
       xml:space="preserve"
       style="font-size:40px;font-style:normal;font-weight:normal;line-height:125%;letter-spacing:0px;word-spacing:0px;fill:#0000ff;fill-opacity:1;stroke:none;font-family:Bitstream Vera Sans"
       x="233.44029"
       y="166.92274"
       id="text4937-7"
       sodipodi:linespacing="125%"><tspan
         sodipodi:role="line"
         id="tspan4939-8"
         x="233.44029"
         y="166.92274">CC</tspan></text>
  </g>
</svg>
